<?xml version="1.0" encoding="utf-8" standalone="no"?>
<!DOCTYPE svg PUBLIC "-//W3C//DTD SVG 1.1//EN"
  "http://www.w3.org/Graphics/SVG/1.1/DTD/svg11.dtd">
<!-- Created with matplotlib (https://matplotlib.org/) -->
<svg height="288pt" version="1.1" viewBox="0 0 432 288" width="432pt" xmlns="http://www.w3.org/2000/svg" xmlns:xlink="http://www.w3.org/1999/xlink">
 <metadata>
  <rdf:RDF xmlns:cc="http://creativecommons.org/ns#" xmlns:dc="http://purl.org/dc/elements/1.1/" xmlns:rdf="http://www.w3.org/1999/02/22-rdf-syntax-ns#">
   <cc:Work>
    <dc:type rdf:resource="http://purl.org/dc/dcmitype/StillImage"/>
    <dc:date>2020-11-10T22:54:18.428286</dc:date>
    <dc:format>image/svg+xml</dc:format>
    <dc:creator>
     <cc:Agent>
      <dc:title>Matplotlib v3.3.1, https://matplotlib.org/</dc:title>
     </cc:Agent>
    </dc:creator>
   </cc:Work>
  </rdf:RDF>
 </metadata>
 <defs>
  <style type="text/css">*{stroke-linecap:butt;stroke-linejoin:round;}</style>
 </defs>
 <g id="figure_1">
  <g id="patch_1">
   <path d="M 0 288 
L 432 288 
L 432 0 
L 0 0 
z
" style="fill:#ffffff;"/>
  </g>
  <g id="axes_1">
   <g id="patch_2">
    <path d="M 54 252 
L 388.8 252 
L 388.8 34.56 
L 54 34.56 
z
" style="fill:#eaeaf2;"/>
   </g>
   <g id="matplotlib.axis_1">
    <g id="xtick_1">
     <g id="line2d_1">
      <path clip-path="url(#p47b5ed4f51)" d="M 54 252 
L 54 34.56 
" style="fill:none;stroke:#ffffff;stroke-linecap:round;"/>
     </g>
    </g>
    <g id="xtick_2">
     <g id="line2d_2">
      <path clip-path="url(#p47b5ed4f51)" d="M 65.465753 252 
L 65.465753 34.56 
" style="fill:none;stroke:#ffffff;stroke-linecap:round;"/>
     </g>
     <g id="text_1">
      <!-- Feb -->
      <g style="fill:#262626;" transform="translate(55.989425 269.373594)scale(0.11 -0.11)">
       <defs>
        <path d="M 8.203125 0 
L 8.203125 71.578125 
L 56.5 71.578125 
L 56.5 63.140625 
L 17.671875 63.140625 
L 17.671875 40.96875 
L 51.265625 40.96875 
L 51.265625 32.515625 
L 17.671875 32.515625 
L 17.671875 0 
z
" id="ArialMT-70"/>
        <path d="M 42.09375 16.703125 
L 51.171875 15.578125 
Q 49.03125 7.625 43.21875 3.21875 
Q 37.40625 -1.171875 28.375 -1.171875 
Q 17 -1.171875 10.328125 5.828125 
Q 3.65625 12.84375 3.65625 25.484375 
Q 3.65625 38.578125 10.390625 45.796875 
Q 17.140625 53.03125 27.875 53.03125 
Q 38.28125 53.03125 44.875 45.953125 
Q 51.46875 38.875 51.46875 26.03125 
Q 51.46875 25.25 51.421875 23.6875 
L 12.75 23.6875 
Q 13.234375 15.140625 17.578125 10.59375 
Q 21.921875 6.0625 28.421875 6.0625 
Q 33.25 6.0625 36.671875 8.59375 
Q 40.09375 11.140625 42.09375 16.703125 
z
M 13.234375 30.90625 
L 42.1875 30.90625 
Q 41.609375 37.453125 38.875 40.71875 
Q 34.671875 45.796875 27.984375 45.796875 
Q 21.921875 45.796875 17.796875 41.75 
Q 13.671875 37.703125 13.234375 30.90625 
z
" id="ArialMT-101"/>
        <path d="M 14.703125 0 
L 6.546875 0 
L 6.546875 71.578125 
L 15.328125 71.578125 
L 15.328125 46.046875 
Q 20.90625 53.03125 29.546875 53.03125 
Q 34.328125 53.03125 38.59375 51.09375 
Q 42.875 49.171875 45.625 45.671875 
Q 48.390625 42.1875 49.953125 37.25 
Q 51.515625 32.328125 51.515625 26.703125 
Q 51.515625 13.375 44.921875 6.09375 
Q 38.328125 -1.171875 29.109375 -1.171875 
Q 19.921875 -1.171875 14.703125 6.5 
z
M 14.59375 26.3125 
Q 14.59375 17 17.140625 12.84375 
Q 21.296875 6.0625 28.375 6.0625 
Q 34.125 6.0625 38.328125 11.0625 
Q 42.53125 16.0625 42.53125 25.984375 
Q 42.53125 36.140625 38.5 40.96875 
Q 34.46875 45.796875 28.765625 45.796875 
Q 23 45.796875 18.796875 40.796875 
Q 14.59375 35.796875 14.59375 26.3125 
z
" id="ArialMT-98"/>
       </defs>
       <use xlink:href="#ArialMT-70"/>
       <use x="61.083984" xlink:href="#ArialMT-101"/>
       <use x="116.699219" xlink:href="#ArialMT-98"/>
      </g>
      <!-- 2020 -->
      <g style="fill:#262626;" transform="translate(53.231691 281.008156)scale(0.11 -0.11)">
       <defs>
        <path d="M 50.34375 8.453125 
L 50.34375 0 
L 3.03125 0 
Q 2.9375 3.171875 4.046875 6.109375 
Q 5.859375 10.9375 9.828125 15.625 
Q 13.8125 20.3125 21.34375 26.46875 
Q 33.015625 36.03125 37.109375 41.625 
Q 41.21875 47.21875 41.21875 52.203125 
Q 41.21875 57.421875 37.46875 61 
Q 33.734375 64.59375 27.734375 64.59375 
Q 21.390625 64.59375 17.578125 60.78125 
Q 13.765625 56.984375 13.71875 50.25 
L 4.6875 51.171875 
Q 5.609375 61.28125 11.65625 66.578125 
Q 17.71875 71.875 27.9375 71.875 
Q 38.234375 71.875 44.234375 66.15625 
Q 50.25 60.453125 50.25 52 
Q 50.25 47.703125 48.484375 43.546875 
Q 46.734375 39.40625 42.65625 34.8125 
Q 38.578125 30.21875 29.109375 22.21875 
Q 21.1875 15.578125 18.9375 13.203125 
Q 16.703125 10.84375 15.234375 8.453125 
z
" id="ArialMT-50"/>
        <path d="M 4.15625 35.296875 
Q 4.15625 48 6.765625 55.734375 
Q 9.375 63.484375 14.515625 67.671875 
Q 19.671875 71.875 27.484375 71.875 
Q 33.25 71.875 37.59375 69.546875 
Q 41.9375 67.234375 44.765625 62.859375 
Q 47.609375 58.5 49.21875 52.21875 
Q 50.828125 45.953125 50.828125 35.296875 
Q 50.828125 22.703125 48.234375 14.96875 
Q 45.65625 7.234375 40.5 3 
Q 35.359375 -1.21875 27.484375 -1.21875 
Q 17.140625 -1.21875 11.234375 6.203125 
Q 4.15625 15.140625 4.15625 35.296875 
z
M 13.1875 35.296875 
Q 13.1875 17.671875 17.3125 11.828125 
Q 21.4375 6 27.484375 6 
Q 33.546875 6 37.671875 11.859375 
Q 41.796875 17.71875 41.796875 35.296875 
Q 41.796875 52.984375 37.671875 58.78125 
Q 33.546875 64.59375 27.390625 64.59375 
Q 21.34375 64.59375 17.71875 59.46875 
Q 13.1875 52.9375 13.1875 35.296875 
z
" id="ArialMT-48"/>
       </defs>
       <use xlink:href="#ArialMT-50"/>
       <use x="55.615234" xlink:href="#ArialMT-48"/>
       <use x="111.230469" xlink:href="#ArialMT-50"/>
       <use x="166.845703" xlink:href="#ArialMT-48"/>
      </g>
     </g>
    </g>
    <g id="xtick_3">
     <g id="line2d_3">
      <path clip-path="url(#p47b5ed4f51)" d="M 98.716438 252 
L 98.716438 34.56 
" style="fill:none;stroke:#ffffff;stroke-linecap:round;"/>
     </g>
     <g id="text_2">
      <!-- Mar -->
      <g style="fill:#262626;" transform="translate(89.245266 269.373594)scale(0.11 -0.11)">
       <defs>
        <path d="M 7.421875 0 
L 7.421875 71.578125 
L 21.6875 71.578125 
L 38.625 20.90625 
Q 40.96875 13.8125 42.046875 10.296875 
Q 43.265625 14.203125 45.84375 21.78125 
L 62.984375 71.578125 
L 75.734375 71.578125 
L 75.734375 0 
L 66.609375 0 
L 66.609375 59.90625 
L 45.796875 0 
L 37.25 0 
L 16.546875 60.9375 
L 16.546875 0 
z
" id="ArialMT-77"/>
        <path d="M 40.4375 6.390625 
Q 35.546875 2.25 31.03125 0.53125 
Q 26.515625 -1.171875 21.34375 -1.171875 
Q 12.796875 -1.171875 8.203125 3 
Q 3.609375 7.171875 3.609375 13.671875 
Q 3.609375 17.484375 5.34375 20.625 
Q 7.078125 23.78125 9.890625 25.6875 
Q 12.703125 27.59375 16.21875 28.5625 
Q 18.796875 29.25 24.03125 29.890625 
Q 34.671875 31.15625 39.703125 32.90625 
Q 39.75 34.71875 39.75 35.203125 
Q 39.75 40.578125 37.25 42.78125 
Q 33.890625 45.75 27.25 45.75 
Q 21.046875 45.75 18.09375 43.578125 
Q 15.140625 41.40625 13.71875 35.890625 
L 5.125 37.0625 
Q 6.296875 42.578125 8.984375 45.96875 
Q 11.671875 49.359375 16.75 51.1875 
Q 21.828125 53.03125 28.515625 53.03125 
Q 35.15625 53.03125 39.296875 51.46875 
Q 43.453125 49.90625 45.40625 47.53125 
Q 47.359375 45.171875 48.140625 41.546875 
Q 48.578125 39.3125 48.578125 33.453125 
L 48.578125 21.734375 
Q 48.578125 9.46875 49.140625 6.21875 
Q 49.703125 2.984375 51.375 0 
L 42.1875 0 
Q 40.828125 2.734375 40.4375 6.390625 
z
M 39.703125 26.03125 
Q 34.90625 24.078125 25.34375 22.703125 
Q 19.921875 21.921875 17.671875 20.9375 
Q 15.4375 19.96875 14.203125 18.09375 
Q 12.984375 16.21875 12.984375 13.921875 
Q 12.984375 10.40625 15.640625 8.0625 
Q 18.3125 5.71875 23.4375 5.71875 
Q 28.515625 5.71875 32.46875 7.9375 
Q 36.421875 10.15625 38.28125 14.015625 
Q 39.703125 17 39.703125 22.796875 
z
" id="ArialMT-97"/>
        <path d="M 6.5 0 
L 6.5 51.859375 
L 14.40625 51.859375 
L 14.40625 44 
Q 17.4375 49.515625 20 51.265625 
Q 22.5625 53.03125 25.640625 53.03125 
Q 30.078125 53.03125 34.671875 50.203125 
L 31.640625 42.046875 
Q 28.421875 43.953125 25.203125 43.953125 
Q 22.3125 43.953125 20.015625 42.21875 
Q 17.71875 40.484375 16.75 37.40625 
Q 15.28125 32.71875 15.28125 27.15625 
L 15.28125 0 
z
" id="ArialMT-114"/>
       </defs>
       <use xlink:href="#ArialMT-77"/>
       <use x="83.300781" xlink:href="#ArialMT-97"/>
       <use x="138.916016" xlink:href="#ArialMT-114"/>
      </g>
     </g>
    </g>
    <g id="xtick_4">
     <g id="line2d_4">
      <path clip-path="url(#p47b5ed4f51)" d="M 134.260274 252 
L 134.260274 34.56 
" style="fill:none;stroke:#ffffff;stroke-linecap:round;"/>
     </g>
     <g id="text_3">
      <!-- Apr -->
      <g style="fill:#262626;" transform="translate(125.701758 269.373594)scale(0.11 -0.11)">
       <defs>
        <path d="M -0.140625 0 
L 27.34375 71.578125 
L 37.546875 71.578125 
L 66.84375 0 
L 56.0625 0 
L 47.703125 21.6875 
L 17.78125 21.6875 
L 9.90625 0 
z
M 20.515625 29.390625 
L 44.78125 29.390625 
L 37.3125 49.21875 
Q 33.890625 58.25 32.234375 64.0625 
Q 30.859375 57.171875 28.375 50.390625 
z
" id="ArialMT-65"/>
        <path d="M 6.59375 -19.875 
L 6.59375 51.859375 
L 14.59375 51.859375 
L 14.59375 45.125 
Q 17.4375 49.078125 21 51.046875 
Q 24.5625 53.03125 29.640625 53.03125 
Q 36.28125 53.03125 41.359375 49.609375 
Q 46.4375 46.1875 49.015625 39.953125 
Q 51.609375 33.734375 51.609375 26.3125 
Q 51.609375 18.359375 48.75 11.984375 
Q 45.90625 5.609375 40.453125 2.21875 
Q 35.015625 -1.171875 29 -1.171875 
Q 24.609375 -1.171875 21.109375 0.6875 
Q 17.625 2.546875 15.375 5.375 
L 15.375 -19.875 
z
M 14.546875 25.640625 
Q 14.546875 15.625 18.59375 10.84375 
Q 22.65625 6.0625 28.421875 6.0625 
Q 34.28125 6.0625 38.453125 11.015625 
Q 42.625 15.96875 42.625 26.375 
Q 42.625 36.28125 38.546875 41.203125 
Q 34.46875 46.140625 28.8125 46.140625 
Q 23.1875 46.140625 18.859375 40.890625 
Q 14.546875 35.640625 14.546875 25.640625 
z
" id="ArialMT-112"/>
       </defs>
       <use xlink:href="#ArialMT-65"/>
       <use x="66.699219" xlink:href="#ArialMT-112"/>
       <use x="122.314453" xlink:href="#ArialMT-114"/>
      </g>
     </g>
    </g>
    <g id="xtick_5">
     <g id="line2d_5">
      <path clip-path="url(#p47b5ed4f51)" d="M 168.657534 252 
L 168.657534 34.56 
" style="fill:none;stroke:#ffffff;stroke-linecap:round;"/>
     </g>
     <g id="text_4">
      <!-- May -->
      <g style="fill:#262626;" transform="translate(158.26769 269.373594)scale(0.11 -0.11)">
       <defs>
        <path d="M 6.203125 -19.96875 
L 5.21875 -11.71875 
Q 8.109375 -12.5 10.25 -12.5 
Q 13.1875 -12.5 14.9375 -11.515625 
Q 16.703125 -10.546875 17.828125 -8.796875 
Q 18.65625 -7.46875 20.515625 -2.25 
Q 20.75 -1.515625 21.296875 -0.09375 
L 1.609375 51.859375 
L 11.078125 51.859375 
L 21.875 21.828125 
Q 23.96875 16.109375 25.640625 9.8125 
Q 27.15625 15.875 29.25 21.625 
L 40.328125 51.859375 
L 49.125 51.859375 
L 29.390625 -0.875 
Q 26.21875 -9.421875 24.46875 -12.640625 
Q 22.125 -17 19.09375 -19.015625 
Q 16.0625 -21.046875 11.859375 -21.046875 
Q 9.328125 -21.046875 6.203125 -19.96875 
z
" id="ArialMT-121"/>
       </defs>
       <use xlink:href="#ArialMT-77"/>
       <use x="83.300781" xlink:href="#ArialMT-97"/>
       <use x="138.916016" xlink:href="#ArialMT-121"/>
      </g>
     </g>
    </g>
    <g id="xtick_6">
     <g id="line2d_6">
      <path clip-path="url(#p47b5ed4f51)" d="M 204.20137 252 
L 204.20137 34.56 
" style="fill:none;stroke:#ffffff;stroke-linecap:round;"/>
     </g>
     <g id="text_5">
      <!-- Jun -->
      <g style="fill:#262626;" transform="translate(195.334339 269.373594)scale(0.11 -0.11)">
       <defs>
        <path d="M 2.875 20.3125 
L 11.421875 21.484375 
Q 11.765625 13.28125 14.5 10.25 
Q 17.234375 7.234375 22.078125 7.234375 
Q 25.640625 7.234375 28.21875 8.859375 
Q 30.8125 10.5 31.78125 13.296875 
Q 32.765625 16.109375 32.765625 22.265625 
L 32.765625 71.578125 
L 42.234375 71.578125 
L 42.234375 22.796875 
Q 42.234375 13.8125 40.0625 8.875 
Q 37.890625 3.953125 33.171875 1.359375 
Q 28.46875 -1.21875 22.125 -1.21875 
Q 12.703125 -1.21875 7.6875 4.203125 
Q 2.6875 9.625 2.875 20.3125 
z
" id="ArialMT-74"/>
        <path d="M 40.578125 0 
L 40.578125 7.625 
Q 34.515625 -1.171875 24.125 -1.171875 
Q 19.53125 -1.171875 15.546875 0.578125 
Q 11.578125 2.34375 9.640625 5 
Q 7.71875 7.671875 6.9375 11.53125 
Q 6.390625 14.109375 6.390625 19.734375 
L 6.390625 51.859375 
L 15.1875 51.859375 
L 15.1875 23.09375 
Q 15.1875 16.21875 15.71875 13.8125 
Q 16.546875 10.359375 19.234375 8.375 
Q 21.921875 6.390625 25.875 6.390625 
Q 29.828125 6.390625 33.296875 8.421875 
Q 36.765625 10.453125 38.203125 13.9375 
Q 39.65625 17.4375 39.65625 24.078125 
L 39.65625 51.859375 
L 48.4375 51.859375 
L 48.4375 0 
z
" id="ArialMT-117"/>
        <path d="M 6.59375 0 
L 6.59375 51.859375 
L 14.5 51.859375 
L 14.5 44.484375 
Q 20.21875 53.03125 31 53.03125 
Q 35.6875 53.03125 39.625 51.34375 
Q 43.5625 49.65625 45.515625 46.921875 
Q 47.46875 44.1875 48.25 40.4375 
Q 48.734375 37.984375 48.734375 31.890625 
L 48.734375 0 
L 39.9375 0 
L 39.9375 31.546875 
Q 39.9375 36.921875 38.90625 39.578125 
Q 37.890625 42.234375 35.28125 43.8125 
Q 32.671875 45.40625 29.15625 45.40625 
Q 23.53125 45.40625 19.453125 41.84375 
Q 15.375 38.28125 15.375 28.328125 
L 15.375 0 
z
" id="ArialMT-110"/>
       </defs>
       <use xlink:href="#ArialMT-74"/>
       <use x="50" xlink:href="#ArialMT-117"/>
       <use x="105.615234" xlink:href="#ArialMT-110"/>
      </g>
     </g>
    </g>
    <g id="xtick_7">
     <g id="line2d_7">
      <path clip-path="url(#p47b5ed4f51)" d="M 238.59863 252 
L 238.59863 34.56 
" style="fill:none;stroke:#ffffff;stroke-linecap:round;"/>
     </g>
     <g id="text_6">
      <!-- Jul -->
      <g style="fill:#262626;" transform="translate(231.568083 269.373594)scale(0.11 -0.11)">
       <defs>
        <path d="M 6.390625 0 
L 6.390625 71.578125 
L 15.1875 71.578125 
L 15.1875 0 
z
" id="ArialMT-108"/>
       </defs>
       <use xlink:href="#ArialMT-74"/>
       <use x="50" xlink:href="#ArialMT-117"/>
       <use x="105.615234" xlink:href="#ArialMT-108"/>
      </g>
     </g>
    </g>
    <g id="xtick_8">
     <g id="line2d_8">
      <path clip-path="url(#p47b5ed4f51)" d="M 274.142466 252 
L 274.142466 34.56 
" style="fill:none;stroke:#ffffff;stroke-linecap:round;"/>
     </g>
     <g id="text_7">
      <!-- Aug -->
      <g style="fill:#262626;" transform="translate(264.356763 269.373594)scale(0.11 -0.11)">
       <defs>
        <path d="M 4.984375 -4.296875 
L 13.53125 -5.5625 
Q 14.0625 -9.515625 16.5 -11.328125 
Q 19.78125 -13.765625 25.4375 -13.765625 
Q 31.546875 -13.765625 34.859375 -11.328125 
Q 38.1875 -8.890625 39.359375 -4.5 
Q 40.046875 -1.8125 39.984375 6.78125 
Q 34.234375 0 25.640625 0 
Q 14.9375 0 9.078125 7.71875 
Q 3.21875 15.4375 3.21875 26.21875 
Q 3.21875 33.640625 5.90625 39.90625 
Q 8.59375 46.1875 13.6875 49.609375 
Q 18.796875 53.03125 25.6875 53.03125 
Q 34.859375 53.03125 40.828125 45.609375 
L 40.828125 51.859375 
L 48.921875 51.859375 
L 48.921875 7.03125 
Q 48.921875 -5.078125 46.453125 -10.125 
Q 44 -15.1875 38.640625 -18.109375 
Q 33.296875 -21.046875 25.484375 -21.046875 
Q 16.21875 -21.046875 10.5 -16.875 
Q 4.78125 -12.703125 4.984375 -4.296875 
z
M 12.25 26.859375 
Q 12.25 16.65625 16.296875 11.96875 
Q 20.359375 7.28125 26.46875 7.28125 
Q 32.515625 7.28125 36.609375 11.9375 
Q 40.71875 16.609375 40.71875 26.5625 
Q 40.71875 36.078125 36.5 40.90625 
Q 32.28125 45.75 26.3125 45.75 
Q 20.453125 45.75 16.34375 40.984375 
Q 12.25 36.234375 12.25 26.859375 
z
" id="ArialMT-103"/>
       </defs>
       <use xlink:href="#ArialMT-65"/>
       <use x="66.699219" xlink:href="#ArialMT-117"/>
       <use x="122.314453" xlink:href="#ArialMT-103"/>
      </g>
     </g>
    </g>
    <g id="xtick_9">
     <g id="line2d_9">
      <path clip-path="url(#p47b5ed4f51)" d="M 309.686301 252 
L 309.686301 34.56 
" style="fill:none;stroke:#ffffff;stroke-linecap:round;"/>
     </g>
     <g id="text_8">
      <!-- Sep -->
      <g style="fill:#262626;" transform="translate(299.900598 269.507656)scale(0.11 -0.11)">
       <defs>
        <path d="M 4.5 23 
L 13.421875 23.78125 
Q 14.0625 18.40625 16.375 14.96875 
Q 18.703125 11.53125 23.578125 9.40625 
Q 28.46875 7.28125 34.578125 7.28125 
Q 39.984375 7.28125 44.140625 8.890625 
Q 48.296875 10.5 50.3125 13.296875 
Q 52.34375 16.109375 52.34375 19.4375 
Q 52.34375 22.796875 50.390625 25.3125 
Q 48.4375 27.828125 43.953125 29.546875 
Q 41.0625 30.671875 31.203125 33.03125 
Q 21.34375 35.40625 17.390625 37.5 
Q 12.25 40.1875 9.734375 44.15625 
Q 7.234375 48.140625 7.234375 53.078125 
Q 7.234375 58.5 10.296875 63.203125 
Q 13.375 67.921875 19.28125 70.359375 
Q 25.203125 72.796875 32.421875 72.796875 
Q 40.375 72.796875 46.453125 70.234375 
Q 52.546875 67.671875 55.8125 62.6875 
Q 59.078125 57.71875 59.328125 51.421875 
L 50.25 50.734375 
Q 49.515625 57.515625 45.28125 60.984375 
Q 41.0625 64.453125 32.8125 64.453125 
Q 24.21875 64.453125 20.28125 61.296875 
Q 16.359375 58.15625 16.359375 53.71875 
Q 16.359375 49.859375 19.140625 47.359375 
Q 21.875 44.875 33.421875 42.265625 
Q 44.96875 39.65625 49.265625 37.703125 
Q 55.515625 34.8125 58.484375 30.390625 
Q 61.46875 25.984375 61.46875 20.21875 
Q 61.46875 14.5 58.203125 9.4375 
Q 54.9375 4.390625 48.796875 1.578125 
Q 42.671875 -1.21875 35.015625 -1.21875 
Q 25.296875 -1.21875 18.71875 1.609375 
Q 12.15625 4.4375 8.421875 10.125 
Q 4.6875 15.828125 4.5 23 
z
" id="ArialMT-83"/>
       </defs>
       <use xlink:href="#ArialMT-83"/>
       <use x="66.699219" xlink:href="#ArialMT-101"/>
       <use x="122.314453" xlink:href="#ArialMT-112"/>
      </g>
     </g>
    </g>
    <g id="xtick_10">
     <g id="line2d_10">
      <path clip-path="url(#p47b5ed4f51)" d="M 344.083562 252 
L 344.083562 34.56 
" style="fill:none;stroke:#ffffff;stroke-linecap:round;"/>
     </g>
     <g id="text_9">
      <!-- Oct -->
      <g style="fill:#262626;" transform="translate(335.527624 269.373594)scale(0.11 -0.11)">
       <defs>
        <path d="M 4.828125 34.859375 
Q 4.828125 52.6875 14.390625 62.765625 
Q 23.96875 72.859375 39.109375 72.859375 
Q 49.03125 72.859375 56.984375 68.109375 
Q 64.9375 63.375 69.109375 54.90625 
Q 73.296875 46.4375 73.296875 35.6875 
Q 73.296875 24.8125 68.890625 16.21875 
Q 64.5 7.625 56.4375 3.203125 
Q 48.390625 -1.21875 39.0625 -1.21875 
Q 28.953125 -1.21875 20.984375 3.65625 
Q 13.03125 8.546875 8.921875 16.984375 
Q 4.828125 25.4375 4.828125 34.859375 
z
M 14.59375 34.71875 
Q 14.59375 21.78125 21.546875 14.328125 
Q 28.515625 6.890625 39.015625 6.890625 
Q 49.703125 6.890625 56.609375 14.40625 
Q 63.53125 21.921875 63.53125 35.75 
Q 63.53125 44.484375 60.578125 51 
Q 57.625 57.515625 51.921875 61.109375 
Q 46.234375 64.703125 39.15625 64.703125 
Q 29.109375 64.703125 21.84375 57.78125 
Q 14.59375 50.875 14.59375 34.71875 
z
" id="ArialMT-79"/>
        <path d="M 40.4375 19 
L 49.078125 17.875 
Q 47.65625 8.9375 41.8125 3.875 
Q 35.984375 -1.171875 27.484375 -1.171875 
Q 16.84375 -1.171875 10.375 5.78125 
Q 3.90625 12.75 3.90625 25.734375 
Q 3.90625 34.125 6.6875 40.421875 
Q 9.46875 46.734375 15.15625 49.875 
Q 20.84375 53.03125 27.546875 53.03125 
Q 35.984375 53.03125 41.359375 48.75 
Q 46.734375 44.484375 48.25 36.625 
L 39.703125 35.296875 
Q 38.484375 40.53125 35.375 43.15625 
Q 32.28125 45.796875 27.875 45.796875 
Q 21.234375 45.796875 17.078125 41.03125 
Q 12.9375 36.28125 12.9375 25.984375 
Q 12.9375 15.53125 16.9375 10.796875 
Q 20.953125 6.0625 27.390625 6.0625 
Q 32.5625 6.0625 36.03125 9.234375 
Q 39.5 12.40625 40.4375 19 
z
" id="ArialMT-99"/>
        <path d="M 25.78125 7.859375 
L 27.046875 0.09375 
Q 23.34375 -0.6875 20.40625 -0.6875 
Q 15.625 -0.6875 12.984375 0.828125 
Q 10.359375 2.34375 9.28125 4.8125 
Q 8.203125 7.28125 8.203125 15.1875 
L 8.203125 45.015625 
L 1.765625 45.015625 
L 1.765625 51.859375 
L 8.203125 51.859375 
L 8.203125 64.703125 
L 16.9375 69.96875 
L 16.9375 51.859375 
L 25.78125 51.859375 
L 25.78125 45.015625 
L 16.9375 45.015625 
L 16.9375 14.703125 
Q 16.9375 10.9375 17.40625 9.859375 
Q 17.875 8.796875 18.921875 8.15625 
Q 19.96875 7.515625 21.921875 7.515625 
Q 23.390625 7.515625 25.78125 7.859375 
z
" id="ArialMT-116"/>
       </defs>
       <use xlink:href="#ArialMT-79"/>
       <use x="77.783203" xlink:href="#ArialMT-99"/>
       <use x="127.783203" xlink:href="#ArialMT-116"/>
      </g>
     </g>
    </g>
    <g id="xtick_11">
     <g id="line2d_11">
      <path clip-path="url(#p47b5ed4f51)" d="M 379.627397 252 
L 379.627397 34.56 
" style="fill:none;stroke:#ffffff;stroke-linecap:round;"/>
     </g>
     <g id="text_10">
      <!-- Nov -->
      <g style="fill:#262626;" transform="translate(369.84685 269.373594)scale(0.11 -0.11)">
       <defs>
        <path d="M 7.625 0 
L 7.625 71.578125 
L 17.328125 71.578125 
L 54.9375 15.375 
L 54.9375 71.578125 
L 64.015625 71.578125 
L 64.015625 0 
L 54.296875 0 
L 16.703125 56.25 
L 16.703125 0 
z
" id="ArialMT-78"/>
        <path d="M 3.328125 25.921875 
Q 3.328125 40.328125 11.328125 47.265625 
Q 18.015625 53.03125 27.640625 53.03125 
Q 38.328125 53.03125 45.109375 46.015625 
Q 51.90625 39.015625 51.90625 26.65625 
Q 51.90625 16.65625 48.90625 10.90625 
Q 45.90625 5.171875 40.15625 2 
Q 34.421875 -1.171875 27.640625 -1.171875 
Q 16.75 -1.171875 10.03125 5.8125 
Q 3.328125 12.796875 3.328125 25.921875 
z
M 12.359375 25.921875 
Q 12.359375 15.96875 16.703125 11.015625 
Q 21.046875 6.0625 27.640625 6.0625 
Q 34.1875 6.0625 38.53125 11.03125 
Q 42.875 16.015625 42.875 26.21875 
Q 42.875 35.84375 38.5 40.796875 
Q 34.125 45.75 27.640625 45.75 
Q 21.046875 45.75 16.703125 40.8125 
Q 12.359375 35.890625 12.359375 25.921875 
z
" id="ArialMT-111"/>
        <path d="M 21 0 
L 1.265625 51.859375 
L 10.546875 51.859375 
L 21.6875 20.796875 
Q 23.484375 15.765625 25 10.359375 
Q 26.171875 14.453125 28.265625 20.21875 
L 39.796875 51.859375 
L 48.828125 51.859375 
L 29.203125 0 
z
" id="ArialMT-118"/>
       </defs>
       <use xlink:href="#ArialMT-78"/>
       <use x="72.216797" xlink:href="#ArialMT-111"/>
       <use x="127.832031" xlink:href="#ArialMT-118"/>
      </g>
     </g>
    </g>
    <g id="xtick_12">
     <g id="line2d_12">
      <path clip-path="url(#p47b5ed4f51)" d="M 388.8 252 
L 388.8 34.56 
" style="fill:none;stroke:#ffffff;stroke-linecap:round;"/>
     </g>
    </g>
    <g id="xtick_13"/>
    <g id="xtick_14"/>
    <g id="xtick_15"/>
    <g id="xtick_16"/>
    <g id="xtick_17"/>
    <g id="xtick_18"/>
    <g id="xtick_19"/>
    <g id="xtick_20"/>
    <g id="xtick_21"/>
    <g id="xtick_22"/>
    <g id="xtick_23"/>
    <g id="xtick_24"/>
    <g id="xtick_25"/>
    <g id="xtick_26"/>
    <g id="xtick_27"/>
    <g id="xtick_28"/>
    <g id="xtick_29"/>
    <g id="xtick_30"/>
    <g id="xtick_31"/>
    <g id="xtick_32"/>
    <g id="xtick_33"/>
    <g id="xtick_34"/>
    <g id="xtick_35"/>
    <g id="xtick_36"/>
    <g id="xtick_37"/>
    <g id="xtick_38"/>
    <g id="xtick_39"/>
    <g id="xtick_40"/>
    <g id="xtick_41"/>
    <g id="xtick_42"/>
    <g id="xtick_43"/>
    <g id="xtick_44"/>
    <g id="xtick_45"/>
    <g id="xtick_46"/>
    <g id="xtick_47"/>
    <g id="xtick_48"/>
    <g id="xtick_49"/>
    <g id="xtick_50"/>
    <g id="xtick_51"/>
    <g id="xtick_52"/>
   </g>
   <g id="matplotlib.axis_2">
    <g id="ytick_1">
     <g id="line2d_13">
      <path clip-path="url(#p47b5ed4f51)" d="M 54 242.116364 
L 388.8 242.116364 
" style="fill:none;stroke:#ffffff;stroke-linecap:round;"/>
     </g>
     <g id="text_11">
      <!-- 0 -->
      <g style="fill:#262626;" transform="translate(38.382969 246.053161)scale(0.11 -0.11)">
       <use xlink:href="#ArialMT-48"/>
      </g>
     </g>
    </g>
    <g id="ytick_2">
     <g id="line2d_14">
      <path clip-path="url(#p47b5ed4f51)" d="M 54 195.167522 
L 388.8 195.167522 
" style="fill:none;stroke:#ffffff;stroke-linecap:round;"/>
     </g>
     <g id="text_12">
      <!-- 20 -->
      <g style="fill:#262626;" transform="translate(32.265937 199.104319)scale(0.11 -0.11)">
       <use xlink:href="#ArialMT-50"/>
       <use x="55.615234" xlink:href="#ArialMT-48"/>
      </g>
     </g>
    </g>
    <g id="ytick_3">
     <g id="line2d_15">
      <path clip-path="url(#p47b5ed4f51)" d="M 54 148.21868 
L 388.8 148.21868 
" style="fill:none;stroke:#ffffff;stroke-linecap:round;"/>
     </g>
     <g id="text_13">
      <!-- 40 -->
      <g style="fill:#262626;" transform="translate(32.265937 152.155477)scale(0.11 -0.11)">
       <defs>
        <path d="M 32.328125 0 
L 32.328125 17.140625 
L 1.265625 17.140625 
L 1.265625 25.203125 
L 33.9375 71.578125 
L 41.109375 71.578125 
L 41.109375 25.203125 
L 50.78125 25.203125 
L 50.78125 17.140625 
L 41.109375 17.140625 
L 41.109375 0 
z
M 32.328125 25.203125 
L 32.328125 57.46875 
L 9.90625 25.203125 
z
" id="ArialMT-52"/>
       </defs>
       <use xlink:href="#ArialMT-52"/>
       <use x="55.615234" xlink:href="#ArialMT-48"/>
      </g>
     </g>
    </g>
    <g id="ytick_4">
     <g id="line2d_16">
      <path clip-path="url(#p47b5ed4f51)" d="M 54 101.269838 
L 388.8 101.269838 
" style="fill:none;stroke:#ffffff;stroke-linecap:round;"/>
     </g>
     <g id="text_14">
      <!-- 60 -->
      <g style="fill:#262626;" transform="translate(32.265937 105.206635)scale(0.11 -0.11)">
       <defs>
        <path d="M 49.75 54.046875 
L 41.015625 53.375 
Q 39.84375 58.546875 37.703125 60.890625 
Q 34.125 64.65625 28.90625 64.65625 
Q 24.703125 64.65625 21.53125 62.3125 
Q 17.390625 59.28125 14.984375 53.46875 
Q 12.59375 47.65625 12.5 36.921875 
Q 15.671875 41.75 20.265625 44.09375 
Q 24.859375 46.4375 29.890625 46.4375 
Q 38.671875 46.4375 44.84375 39.96875 
Q 51.03125 33.5 51.03125 23.25 
Q 51.03125 16.5 48.125 10.71875 
Q 45.21875 4.9375 40.140625 1.859375 
Q 35.0625 -1.21875 28.609375 -1.21875 
Q 17.625 -1.21875 10.6875 6.859375 
Q 3.765625 14.9375 3.765625 33.5 
Q 3.765625 54.25 11.421875 63.671875 
Q 18.109375 71.875 29.4375 71.875 
Q 37.890625 71.875 43.28125 67.140625 
Q 48.6875 62.40625 49.75 54.046875 
z
M 13.875 23.1875 
Q 13.875 18.65625 15.796875 14.5 
Q 17.71875 10.359375 21.1875 8.171875 
Q 24.65625 6 28.46875 6 
Q 34.03125 6 38.03125 10.484375 
Q 42.046875 14.984375 42.046875 22.703125 
Q 42.046875 30.125 38.078125 34.390625 
Q 34.125 38.671875 28.125 38.671875 
Q 22.171875 38.671875 18.015625 34.390625 
Q 13.875 30.125 13.875 23.1875 
z
" id="ArialMT-54"/>
       </defs>
       <use xlink:href="#ArialMT-54"/>
       <use x="55.615234" xlink:href="#ArialMT-48"/>
      </g>
     </g>
    </g>
    <g id="ytick_5">
     <g id="line2d_17">
      <path clip-path="url(#p47b5ed4f51)" d="M 54 54.320997 
L 388.8 54.320997 
" style="fill:none;stroke:#ffffff;stroke-linecap:round;"/>
     </g>
     <g id="text_15">
      <!-- 80 -->
      <g style="fill:#262626;" transform="translate(32.265937 58.257794)scale(0.11 -0.11)">
       <defs>
        <path d="M 17.671875 38.8125 
Q 12.203125 40.828125 9.5625 44.53125 
Q 6.9375 48.25 6.9375 53.421875 
Q 6.9375 61.234375 12.546875 66.546875 
Q 18.171875 71.875 27.484375 71.875 
Q 36.859375 71.875 42.578125 66.421875 
Q 48.296875 60.984375 48.296875 53.171875 
Q 48.296875 48.1875 45.671875 44.5 
Q 43.0625 40.828125 37.75 38.8125 
Q 44.34375 36.671875 47.78125 31.875 
Q 51.21875 27.09375 51.21875 20.453125 
Q 51.21875 11.28125 44.71875 5.03125 
Q 38.234375 -1.21875 27.640625 -1.21875 
Q 17.046875 -1.21875 10.546875 5.046875 
Q 4.046875 11.328125 4.046875 20.703125 
Q 4.046875 27.6875 7.59375 32.390625 
Q 11.140625 37.109375 17.671875 38.8125 
z
M 15.921875 53.71875 
Q 15.921875 48.640625 19.1875 45.40625 
Q 22.46875 42.1875 27.6875 42.1875 
Q 32.765625 42.1875 36.015625 45.375 
Q 39.265625 48.578125 39.265625 53.21875 
Q 39.265625 58.0625 35.90625 61.359375 
Q 32.5625 64.65625 27.59375 64.65625 
Q 22.5625 64.65625 19.234375 61.421875 
Q 15.921875 58.203125 15.921875 53.71875 
z
M 13.09375 20.65625 
Q 13.09375 16.890625 14.875 13.375 
Q 16.65625 9.859375 20.171875 7.921875 
Q 23.6875 6 27.734375 6 
Q 34.03125 6 38.125 10.046875 
Q 42.234375 14.109375 42.234375 20.359375 
Q 42.234375 26.703125 38.015625 30.859375 
Q 33.796875 35.015625 27.4375 35.015625 
Q 21.234375 35.015625 17.15625 30.90625 
Q 13.09375 26.8125 13.09375 20.65625 
z
" id="ArialMT-56"/>
       </defs>
       <use xlink:href="#ArialMT-56"/>
       <use x="55.615234" xlink:href="#ArialMT-48"/>
      </g>
     </g>
    </g>
    <g id="text_16">
     <!-- Casos cada 100000 habitantes -->
     <g style="fill:#262626;" transform="translate(25.880937 226.002187)rotate(-90)scale(0.12 -0.12)">
      <defs>
       <path d="M 58.796875 25.09375 
L 68.265625 22.703125 
Q 65.28125 11.03125 57.546875 4.90625 
Q 49.8125 -1.21875 38.625 -1.21875 
Q 27.046875 -1.21875 19.796875 3.484375 
Q 12.546875 8.203125 8.765625 17.140625 
Q 4.984375 26.078125 4.984375 36.328125 
Q 4.984375 47.515625 9.25 55.828125 
Q 13.53125 64.15625 21.40625 68.46875 
Q 29.296875 72.796875 38.765625 72.796875 
Q 49.515625 72.796875 56.828125 67.328125 
Q 64.15625 61.859375 67.046875 51.953125 
L 57.71875 49.75 
Q 55.21875 57.5625 50.484375 61.125 
Q 45.75 64.703125 38.578125 64.703125 
Q 30.328125 64.703125 24.78125 60.734375 
Q 19.234375 56.78125 16.984375 50.109375 
Q 14.75 43.453125 14.75 36.375 
Q 14.75 27.25 17.40625 20.4375 
Q 20.0625 13.625 25.671875 10.25 
Q 31.296875 6.890625 37.84375 6.890625 
Q 45.796875 6.890625 51.3125 11.46875 
Q 56.84375 16.0625 58.796875 25.09375 
z
" id="ArialMT-67"/>
       <path d="M 3.078125 15.484375 
L 11.765625 16.84375 
Q 12.5 11.625 15.84375 8.84375 
Q 19.1875 6.0625 25.203125 6.0625 
Q 31.25 6.0625 34.171875 8.515625 
Q 37.109375 10.984375 37.109375 14.3125 
Q 37.109375 17.28125 34.515625 19 
Q 32.71875 20.171875 25.53125 21.96875 
Q 15.875 24.421875 12.140625 26.203125 
Q 8.40625 27.984375 6.46875 31.125 
Q 4.546875 34.28125 4.546875 38.09375 
Q 4.546875 41.546875 6.125 44.5 
Q 7.71875 47.46875 10.453125 49.421875 
Q 12.5 50.921875 16.03125 51.96875 
Q 19.578125 53.03125 23.640625 53.03125 
Q 29.734375 53.03125 34.34375 51.265625 
Q 38.96875 49.515625 41.15625 46.5 
Q 43.359375 43.5 44.1875 38.484375 
L 35.59375 37.3125 
Q 35.015625 41.3125 32.203125 43.546875 
Q 29.390625 45.796875 24.265625 45.796875 
Q 18.21875 45.796875 15.625 43.796875 
Q 13.03125 41.796875 13.03125 39.109375 
Q 13.03125 37.40625 14.109375 36.03125 
Q 15.1875 34.625 17.484375 33.6875 
Q 18.796875 33.203125 25.25 31.453125 
Q 34.578125 28.953125 38.25 27.359375 
Q 41.9375 25.78125 44.03125 22.75 
Q 46.140625 19.734375 46.140625 15.234375 
Q 46.140625 10.84375 43.578125 6.953125 
Q 41.015625 3.078125 36.171875 0.953125 
Q 31.34375 -1.171875 25.25 -1.171875 
Q 15.140625 -1.171875 9.84375 3.03125 
Q 4.546875 7.234375 3.078125 15.484375 
z
" id="ArialMT-115"/>
       <path id="ArialMT-32"/>
       <path d="M 40.234375 0 
L 40.234375 6.546875 
Q 35.296875 -1.171875 25.734375 -1.171875 
Q 19.53125 -1.171875 14.328125 2.25 
Q 9.125 5.671875 6.265625 11.796875 
Q 3.421875 17.921875 3.421875 25.875 
Q 3.421875 33.640625 6 39.96875 
Q 8.59375 46.296875 13.765625 49.65625 
Q 18.953125 53.03125 25.34375 53.03125 
Q 30.03125 53.03125 33.6875 51.046875 
Q 37.359375 49.078125 39.65625 45.90625 
L 39.65625 71.578125 
L 48.390625 71.578125 
L 48.390625 0 
z
M 12.453125 25.875 
Q 12.453125 15.921875 16.640625 10.984375 
Q 20.84375 6.0625 26.5625 6.0625 
Q 32.328125 6.0625 36.34375 10.765625 
Q 40.375 15.484375 40.375 25.140625 
Q 40.375 35.796875 36.265625 40.765625 
Q 32.171875 45.75 26.171875 45.75 
Q 20.3125 45.75 16.375 40.96875 
Q 12.453125 36.1875 12.453125 25.875 
z
" id="ArialMT-100"/>
       <path d="M 37.25 0 
L 28.46875 0 
L 28.46875 56 
Q 25.296875 52.984375 20.140625 49.953125 
Q 14.984375 46.921875 10.890625 45.40625 
L 10.890625 53.90625 
Q 18.265625 57.375 23.78125 62.296875 
Q 29.296875 67.234375 31.59375 71.875 
L 37.25 71.875 
z
" id="ArialMT-49"/>
       <path d="M 6.59375 0 
L 6.59375 71.578125 
L 15.375 71.578125 
L 15.375 45.90625 
Q 21.53125 53.03125 30.90625 53.03125 
Q 36.671875 53.03125 40.921875 50.75 
Q 45.171875 48.484375 47 44.484375 
Q 48.828125 40.484375 48.828125 32.859375 
L 48.828125 0 
L 40.046875 0 
L 40.046875 32.859375 
Q 40.046875 39.453125 37.1875 42.453125 
Q 34.328125 45.453125 29.109375 45.453125 
Q 25.203125 45.453125 21.75 43.421875 
Q 18.3125 41.40625 16.84375 37.9375 
Q 15.375 34.46875 15.375 28.375 
L 15.375 0 
z
" id="ArialMT-104"/>
       <path d="M 6.640625 61.46875 
L 6.640625 71.578125 
L 15.4375 71.578125 
L 15.4375 61.46875 
z
M 6.640625 0 
L 6.640625 51.859375 
L 15.4375 51.859375 
L 15.4375 0 
z
" id="ArialMT-105"/>
      </defs>
      <use xlink:href="#ArialMT-67"/>
      <use x="72.216797" xlink:href="#ArialMT-97"/>
      <use x="127.832031" xlink:href="#ArialMT-115"/>
      <use x="177.832031" xlink:href="#ArialMT-111"/>
      <use x="233.447266" xlink:href="#ArialMT-115"/>
      <use x="283.447266" xlink:href="#ArialMT-32"/>
      <use x="311.230469" xlink:href="#ArialMT-99"/>
      <use x="361.230469" xlink:href="#ArialMT-97"/>
      <use x="416.845703" xlink:href="#ArialMT-100"/>
      <use x="472.460938" xlink:href="#ArialMT-97"/>
      <use x="528.076172" xlink:href="#ArialMT-32"/>
      <use x="555.859375" xlink:href="#ArialMT-49"/>
      <use x="611.474609" xlink:href="#ArialMT-48"/>
      <use x="667.089844" xlink:href="#ArialMT-48"/>
      <use x="722.705078" xlink:href="#ArialMT-48"/>
      <use x="778.320312" xlink:href="#ArialMT-48"/>
      <use x="833.935547" xlink:href="#ArialMT-48"/>
      <use x="889.550781" xlink:href="#ArialMT-32"/>
      <use x="917.333984" xlink:href="#ArialMT-104"/>
      <use x="972.949219" xlink:href="#ArialMT-97"/>
      <use x="1028.564453" xlink:href="#ArialMT-98"/>
      <use x="1084.179688" xlink:href="#ArialMT-105"/>
      <use x="1106.396484" xlink:href="#ArialMT-116"/>
      <use x="1134.179688" xlink:href="#ArialMT-97"/>
      <use x="1189.794922" xlink:href="#ArialMT-110"/>
      <use x="1245.410156" xlink:href="#ArialMT-116"/>
      <use x="1273.193359" xlink:href="#ArialMT-101"/>
      <use x="1328.808594" xlink:href="#ArialMT-115"/>
     </g>
    </g>
   </g>
   <g id="line2d_18">
    <path clip-path="url(#p47b5ed4f51)" d="M 54 242.116364 
L 106.742466 242.030954 
L 111.328767 241.840039 
L 114.768493 240.664402 
L 115.915068 240.398126 
L 117.061644 239.438525 
L 118.208219 238.986357 
L 120.50137 236.87624 
L 121.647945 235.208243 
L 122.794521 233.21368 
L 125.087671 228.008726 
L 126.234247 223.793516 
L 128.527397 216.302601 
L 134.260274 194.955253 
L 135.406849 190.127105 
L 136.553425 185.856631 
L 138.846575 178.606872 
L 144.579452 161.324011 
L 145.726027 158.686365 
L 148.019178 152.908664 
L 149.165753 151.401438 
L 152.605479 141.624563 
L 153.752055 141.418576 
L 158.338356 133.008253 
L 159.484932 130.797654 
L 161.778082 127.054709 
L 162.924658 125.607772 
L 165.217808 122.432548 
L 166.364384 120.156637 
L 167.510959 118.810181 
L 168.657534 118.810181 
L 169.80411 116.011764 
L 173.243836 113.434408 
L 175.536986 111.138399 
L 176.683562 109.987883 
L 177.830137 109.088572 
L 181.269863 106.867925 
L 182.416438 105.943493 
L 183.563014 104.853266 
L 184.709589 104.159942 
L 185.856164 103.637437 
L 187.00274 103.637437 
L 188.149315 102.90392 
L 189.29589 102.557258 
L 190.442466 102.004608 
L 191.589041 101.743356 
L 192.735616 98.286783 
L 193.882192 98.035579 
L 195.028767 97.663796 
L 196.175342 107.299997 
L 197.321918 105.87818 
L 223.693151 105.782722 
L 224.839726 99.859323 
L 229.426027 99.809082 
L 237.452055 99.658359 
L 244.331507 99.492564 
L 260.383562 99.321745 
L 276.435616 99.070541 
L 277.582192 98.939915 
L 283.315068 98.914794 
L 284.461644 98.548036 
L 291.341096 98.342048 
L 293.634247 98.075772 
L 294.780822 97.437713 
L 298.220548 97.231725 
L 299.367123 97.231725 
L 301.660274 96.799653 
L 303.953425 96.437919 
L 306.246575 96.362558 
L 307.393151 96.362558 
L 308.539726 95.945559 
L 310.832877 95.44315 
L 311.979452 95.242186 
L 313.126027 94.317754 
L 315.419178 94.317754 
L 317.712329 93.433515 
L 318.858904 93.262696 
L 321.152055 92.664829 
L 323.445205 92.664829 
L 324.591781 92.157396 
L 325.738356 91.373639 
L 326.884932 90.172882 
L 328.031507 89.35898 
L 329.178082 88.906812 
L 331.471233 88.906812 
L 332.617808 88.062765 
L 333.764384 86.85196 
L 334.910959 86.198829 
L 336.057534 85.776805 
L 337.20411 85.204059 
L 339.49726 85.204059 
L 340.643836 84.304748 
L 341.790411 84.304748 
L 342.936986 82.395594 
L 344.083562 81.48121 
L 345.230137 80.913488 
L 347.523288 80.913488 
L 348.669863 80.21514 
L 349.816438 78.903853 
L 350.963014 78.522023 
L 352.109589 77.888988 
L 353.256164 76.678183 
L 355.549315 76.678183 
L 356.69589 75.698485 
L 357.842466 75.296558 
L 358.989041 74.246524 
L 360.135616 73.543152 
L 361.282192 72.427804 
L 363.575342 72.427804 
L 365.868493 70.242326 
L 368.161644 68.679835 
L 369.308219 67.519271 
L 371.60137 67.519271 
L 373.894521 64.776119 
L 376.187671 63.062905 
L 377.334247 61.862148 
L 379.627397 61.862148 
L 380.773973 59.958019 
L 381.920548 58.762286 
L 383.067123 50.608192 
L 385.360274 47.015969 
L 387.653425 47.015969 
L 388.8 44.443636 
L 388.8 44.443636 
" style="fill:none;stroke:#4c72b0;stroke-linecap:round;stroke-width:1.5;"/>
   </g>
   <g id="line2d_19">
    <path clip-path="url(#p47b5ed4f51)" d="M 54 242.116364 
L 112.475342 242.047207 
L 117.061644 241.793633 
L 120.50137 241.240381 
L 122.794521 240.733234 
L 125.087671 239.741991 
L 128.527397 237.482879 
L 129.673973 236.606897 
L 131.967123 234.463046 
L 133.113699 233.241281 
L 134.260274 231.62763 
L 135.406849 229.783456 
L 136.553425 228.169805 
L 139.993151 222.199295 
L 141.139726 219.548296 
L 143.432877 215.491116 
L 145.726027 210.880683 
L 148.019178 206.823502 
L 150.312329 201.613713 
L 152.605479 197.74095 
L 154.89863 193.775978 
L 156.045205 192.346744 
L 157.191781 190.571727 
L 159.484932 186.537599 
L 162.924658 181.443071 
L 167.510959 174.020274 
L 169.80411 170.608554 
L 170.950685 168.672173 
L 173.243836 165.329609 
L 174.390411 163.485436 
L 175.536986 162.102306 
L 180.123288 155.924327 
L 185.856164 150.022973 
L 187.00274 148.616791 
L 188.149315 147.694704 
L 193.882192 141.608933 
L 195.028767 140.640743 
L 196.175342 139.995282 
L 200.761644 136.35304 
L 203.054795 134.393606 
L 204.20137 133.540676 
L 205.347945 132.94132 
L 206.494521 131.903973 
L 207.641096 131.027991 
L 209.934247 129.552652 
L 214.520548 126.163984 
L 224.839726 119.962953 
L 229.426027 117.91131 
L 230.572603 117.358058 
L 232.865753 116.758702 
L 235.158904 115.836615 
L 237.452055 114.983685 
L 238.59863 114.637903 
L 239.745205 114.453486 
L 240.891781 114.107703 
L 242.038356 113.900234 
L 244.331507 113.254773 
L 246.624658 112.655417 
L 248.917808 112.079113 
L 250.064384 111.871643 
L 251.210959 111.548913 
L 262.676712 109.750844 
L 264.969863 109.635584 
L 267.263014 109.451166 
L 269.556164 109.335905 
L 271.849315 109.266749 
L 289.047945 108.32161 
L 291.341096 108.275506 
L 292.487671 108.137193 
L 301.660274 108.044984 
L 303.953425 107.952776 
L 307.393151 107.929724 
L 308.539726 108.229402 
L 310.832877 107.952776 
L 311.979452 107.67615 
L 314.272603 107.606993 
L 317.712329 107.537837 
L 321.152055 107.353419 
L 324.591781 107.353419 
L 329.178082 106.915428 
L 332.617808 106.915428 
L 336.057534 106.61575 
L 339.49726 106.569646 
L 340.643836 106.569646 
L 341.790411 106.339124 
L 345.230137 106.223863 
L 348.669863 106.223863 
L 349.816438 106.500489 
L 350.963014 106.29302 
L 356.69589 106.246916 
L 362.428767 105.693664 
L 365.868493 105.601455 
L 367.015068 105.44009 
L 370.454795 105.324829 
L 377.334247 104.448847 
L 384.213699 103.757282 
L 385.360274 103.296239 
L 388.8 103.296239 
L 388.8 103.296239 
" style="fill:none;stroke:#dd8452;stroke-linecap:round;stroke-width:1.5;"/>
   </g>
   <g id="line2d_20">
    <path clip-path="url(#p47b5ed4f51)" d="M 54 242.116364 
L 253.50411 242.00773 
L 279.875342 241.951661 
L 388.8 241.871062 
L 388.8 241.871062 
" style="fill:none;stroke:#55a868;stroke-linecap:round;stroke-width:1.5;"/>
   </g>
   <g id="line2d_21">
    <path clip-path="url(#p47b5ed4f51)" d="M 54 242.116364 
L 96.423288 242.03479 
L 101.009589 241.80949 
L 103.30274 241.54146 
L 105.59589 241.211279 
L 106.742466 240.694643 
L 107.889041 240.317849 
L 110.182192 238.903897 
L 111.328767 238.16973 
L 112.475342 237.19861 
L 113.621918 236.518826 
L 117.061644 232.393506 
L 119.354795 228.889704 
L 120.50137 226.454134 
L 121.647945 223.37374 
L 125.087671 215.624199 
L 127.380822 210.205347 
L 129.673973 203.182204 
L 131.967123 197.091337 
L 133.113699 193.840026 
L 137.7 182.442957 
L 138.846575 180.403604 
L 141.139726 175.586847 
L 142.286301 173.481458 
L 145.726027 166.493275 
L 146.872603 164.819064 
L 152.605479 153.763829 
L 154.89863 150.209528 
L 156.045205 148.445974 
L 157.191781 146.37166 
L 161.778082 139.6282 
L 162.924658 138.618235 
L 164.071233 137.324703 
L 165.217808 135.840831 
L 167.510959 133.479066 
L 168.657534 132.43414 
L 169.80411 130.592896 
L 172.09726 129.159522 
L 173.243836 128.242785 
L 174.390411 126.809411 
L 176.683562 124.801134 
L 178.976712 123.406605 
L 182.416438 121.285678 
L 184.709589 119.327899 
L 187.00274 118.170324 
L 188.149315 117.78576 
L 191.589041 115.925093 
L 193.882192 114.957857 
L 195.028767 114.763633 
L 203.054795 112.31641 
L 206.494521 111.593896 
L 209.934247 110.642198 
L 212.227397 110.18383 
L 214.520548 109.601157 
L 221.4 108.470773 
L 224.839726 107.864794 
L 227.132877 107.581227 
L 229.426027 107.421963 
L 230.572603 107.542382 
L 232.865753 107.293775 
L 237.452055 107.064591 
L 246.624658 106.493572 
L 267.263014 105.743867 
L 281.021918 105.421455 
L 285.608219 105.324343 
L 289.047945 105.250538 
L 290.194521 104.63679 
L 308.539726 104.283302 
L 323.445205 103.789973 
L 338.350685 102.982001 
L 345.230137 102.504209 
L 358.989041 101.15241 
L 361.282192 100.616351 
L 363.575342 100.165751 
L 365.868493 99.536465 
L 372.747945 96.529877 
L 376.187671 94.032155 
L 377.334247 93.259143 
L 378.480822 92.105452 
L 380.773973 90.392396 
L 383.067123 87.653836 
L 386.506849 82.607894 
L 388.8 79.939256 
L 388.8 79.939256 
" style="fill:none;stroke:#c44e52;stroke-linecap:round;stroke-width:1.5;"/>
   </g>
   <g id="patch_3">
    <path d="M 54 252 
L 54 34.56 
" style="fill:none;stroke:#ffffff;stroke-linecap:square;stroke-linejoin:miter;stroke-width:1.25;"/>
   </g>
   <g id="patch_4">
    <path d="M 388.8 252 
L 388.8 34.56 
" style="fill:none;stroke:#ffffff;stroke-linecap:square;stroke-linejoin:miter;stroke-width:1.25;"/>
   </g>
   <g id="patch_5">
    <path d="M 54 252 
L 388.8 252 
" style="fill:none;stroke:#ffffff;stroke-linecap:square;stroke-linejoin:miter;stroke-width:1.25;"/>
   </g>
   <g id="patch_6">
    <path d="M 54 34.56 
L 388.8 34.56 
" style="fill:none;stroke:#ffffff;stroke-linecap:square;stroke-linejoin:miter;stroke-width:1.25;"/>
   </g>
   <g id="text_17">
    <!-- Fallecidos -->
    <g style="fill:#262626;" transform="translate(194.389688 28.56)scale(0.12 -0.12)">
     <use xlink:href="#ArialMT-70"/>
     <use x="61.083984" xlink:href="#ArialMT-97"/>
     <use x="116.699219" xlink:href="#ArialMT-108"/>
     <use x="138.916016" xlink:href="#ArialMT-108"/>
     <use x="161.132812" xlink:href="#ArialMT-101"/>
     <use x="216.748047" xlink:href="#ArialMT-99"/>
     <use x="266.748047" xlink:href="#ArialMT-105"/>
     <use x="288.964844" xlink:href="#ArialMT-100"/>
     <use x="344.580078" xlink:href="#ArialMT-111"/>
     <use x="400.195312" xlink:href="#ArialMT-115"/>
    </g>
   </g>
   <g id="legend_1">
    <g id="patch_7">
     <path d="M 61.7 105.862344 
L 136.649531 105.862344 
Q 138.849531 105.862344 138.849531 103.662344 
L 138.849531 42.26 
Q 138.849531 40.06 136.649531 40.06 
L 61.7 40.06 
Q 59.5 40.06 59.5 42.26 
L 59.5 103.662344 
Q 59.5 105.862344 61.7 105.862344 
z
" style="fill:#eaeaf2;opacity:0.8;stroke:#cccccc;stroke-linejoin:miter;"/>
    </g>
    <g id="line2d_22">
     <path d="M 63.9 48.617656 
L 85.9 48.617656 
" style="fill:none;stroke:#4c72b0;stroke-linecap:round;stroke-width:1.5;"/>
    </g>
    <g id="line2d_23"/>
    <g id="text_18">
     <!-- Spain -->
     <g style="fill:#262626;" transform="translate(94.7 52.467656)scale(0.11 -0.11)">
      <use xlink:href="#ArialMT-83"/>
      <use x="66.699219" xlink:href="#ArialMT-112"/>
      <use x="122.314453" xlink:href="#ArialMT-97"/>
      <use x="177.929688" xlink:href="#ArialMT-105"/>
      <use x="200.146484" xlink:href="#ArialMT-110"/>
     </g>
    </g>
    <g id="line2d_24">
     <path d="M 63.9 64.1775 
L 85.9 64.1775 
" style="fill:none;stroke:#dd8452;stroke-linecap:round;stroke-width:1.5;"/>
    </g>
    <g id="line2d_25"/>
    <g id="text_19">
     <!-- Sweden -->
     <g style="fill:#262626;" transform="translate(94.7 68.0275)scale(0.11 -0.11)">
      <defs>
       <path d="M 16.15625 0 
L 0.296875 51.859375 
L 9.375 51.859375 
L 17.625 21.921875 
L 20.703125 10.796875 
Q 20.90625 11.625 23.390625 21.484375 
L 31.640625 51.859375 
L 40.671875 51.859375 
L 48.4375 21.78125 
L 51.03125 11.859375 
L 54 21.875 
L 62.890625 51.859375 
L 71.4375 51.859375 
L 55.21875 0 
L 46.09375 0 
L 37.84375 31.0625 
L 35.84375 39.890625 
L 25.34375 0 
z
" id="ArialMT-119"/>
      </defs>
      <use xlink:href="#ArialMT-83"/>
      <use x="66.699219" xlink:href="#ArialMT-119"/>
      <use x="138.916016" xlink:href="#ArialMT-101"/>
      <use x="194.53125" xlink:href="#ArialMT-100"/>
      <use x="250.146484" xlink:href="#ArialMT-101"/>
      <use x="305.761719" xlink:href="#ArialMT-110"/>
     </g>
    </g>
    <g id="line2d_26">
     <path d="M 63.9 79.737344 
L 85.9 79.737344 
" style="fill:none;stroke:#55a868;stroke-linecap:round;stroke-width:1.5;"/>
    </g>
    <g id="line2d_27"/>
    <g id="text_20">
     <!-- France -->
     <g style="fill:#262626;" transform="translate(94.7 83.587344)scale(0.11 -0.11)">
      <use xlink:href="#ArialMT-70"/>
      <use x="61.083984" xlink:href="#ArialMT-114"/>
      <use x="94.384766" xlink:href="#ArialMT-97"/>
      <use x="150" xlink:href="#ArialMT-110"/>
      <use x="205.615234" xlink:href="#ArialMT-99"/>
      <use x="255.615234" xlink:href="#ArialMT-101"/>
     </g>
    </g>
    <g id="line2d_28">
     <path d="M 63.9 95.297188 
L 85.9 95.297188 
" style="fill:none;stroke:#c44e52;stroke-linecap:round;stroke-width:1.5;"/>
    </g>
    <g id="line2d_29"/>
    <g id="text_21">
     <!-- Italy -->
     <g style="fill:#262626;" transform="translate(94.7 99.147188)scale(0.11 -0.11)">
      <defs>
       <path d="M 9.328125 0 
L 9.328125 71.578125 
L 18.796875 71.578125 
L 18.796875 0 
z
" id="ArialMT-73"/>
      </defs>
      <use xlink:href="#ArialMT-73"/>
      <use x="27.783203" xlink:href="#ArialMT-116"/>
      <use x="55.566406" xlink:href="#ArialMT-97"/>
      <use x="111.181641" xlink:href="#ArialMT-108"/>
      <use x="133.398438" xlink:href="#ArialMT-121"/>
     </g>
    </g>
   </g>
  </g>
 </g>
 <defs>
  <clipPath id="p47b5ed4f51">
   <rect height="217.44" width="334.8" x="54" y="34.56"/>
  </clipPath>
 </defs>
</svg>
